<svg xmlns="http://www.w3.org/2000/svg" width="164" height="38" viewBox="0 0 3901 906">
  <defs>
    <style>
      .cls-1 {
        fill-rule: evenodd;
      }
    </style>
  </defs>
  <path id="Color_Fill_2" data-name="Color Fill 2" class="cls-1" d="M1054,66h10V847h-10V66ZM705,176c63.814-.527,92.352,23.247,105,73,3.266,12.846,2.757,38.228,0,51v88c0,46.278,7.537,105.438-5,144-10.131,31.159-31.9,50.853-65,59-10.233,2.519-23.246.543-33,0l-74-1H390c-62.764,0-132.616,8.706-160-29-9.48-13.053-15.879-28.683-20-47q0.5-45.495,1-91V324c-4.413-20.758-1.311-73.641,4-90,3.74-11.52,10.365-21.179,17-30,22.657-30.125,64.576-27,117-27H676C683.7,177,699.516,179.383,705,176Zm2422,62h56V340c0,9.039-2.77,30.318,3,34,9.48-27.814,80.78-43.252,112-24,21.99,13.556,37.64,37,45,65q2.505,23.5,5,47c2.78,13.716-5.78,36.085-9,46-13.19,40.6-25.32,61.7-66,75-9.9,3.235-28.6,8.661-44,5-14.61-3.474-28.92-10.513-39-19-3.79-3.192-4.13-7.372-9-10v2c-2.96,3.961-3.88,15.025-5,20-11.3,5.28-31.06,4.063-48,4-2.83-8.627-1-23.53-1-34V238Zm285,1c20.64-.568,35.12,3.131,43,15,15.37,23.152-2.27,51.412-23,57-26.58,7.166-54.38-21.4-45-47,2.97-8.115,9.97-17.824,17-22C3406.56,240.479,3409.81,240.63,3412,239ZM294,249c-1.919,1.772-3.136,1.9-7,2-1.985,5.509-6.395,8.218-8,15V489a148.977,148.977,0,0,1,3,23c6.778,1.729,14.441,4.321,22,6,10.384,2.307,32.246,2.1,42,0H676c19.079,0,42.089,1.357,58-2,11.34-18.022,8-49.84,8-79V279a149.221,149.221,0,0,1-3-23c-5.267-1.4-9.65-4.619-15-6-13.246-3.42-32.022-1-47-1H294Zm1775,99c20.35,0.831,41.24.978,64,1v39h-63c-2.43,30.96-1,66.364-1,99v40c3.61,9.126,11.04,16.853,24,17,6.14-4.423,16.47-7.837,26-8,6.28,10.678,18.15,18.489,19,34-11.12,5.369-21.21,13.343-34,17-6.38,1.824-13.4,1.769-19,3-19.16,4.217-36.44-3.729-46-10-10.42-6.834-19.47-15.487-24-28-5.76-15.912-3.38-39.384-3-58V389c-9.56-.38-21.04-0.98-32-1-0.33-1-.67-2-1-3-5.16-5.8-3.45-22.827-3-31h2c1.77-1.088,33.54-5.837,37-6-0.34-26.162,9.85-44.454,12-69,3.68-2.712,4.87-5.389,11-6,5.41-3.468,22.3-1.134,30-1,2.25,6.519,2.1,16.626,1,24v52Zm686,237h-57c-2.31-37.765,0-81.376,0-124,0-25,.71-49.947-10-64-3.86-5.07-14.95-8.369-22-10-14.39-3.328-36.1,7.51-41,14-10.6,14.028-10,39.412-10,64V585h-56V460c0-20.633,1.62-46.261-7-59-7.95-11.75-34.02-18.716-52-11-6.15,2.64-11.46,8.524-16,13-4.09,4.031-8.51,5.117-9,13,3.56,5.752,1,36.592,1,46V585h-57V347c8.79-2.951,24.34-1.083,35-1,1.69,1.142,4.9,1.066,8,1,2.47,3.984,6.47,6.916,8,12,1.75,5.8-.55,12.193,4,15,4.88-25.943,70.99-41.5,97-23,6.24,4.439,12.9,12.479,17,19,2.96,4.719,4.04,12.36,9,15,12.31-38.583,81.78-57.375,122-31,4.73,3.1,10.67,5.6,14,10,9.89,13.071,17.33,28.67,22,47,2.99,11.762,2.57,55.078,0,67V585Zm124-243c30.3-.657,56.43,5,74,17,5.39,3.68,15.06,7.114,16,15-7.87,5.649-12.39,17.913-19,25-6.92-1.389-14.04-1.587-20-4-7.88-3.193-16.32-8.536-25-11-21.36-6.066-45.48,5.565-50,20-1.97,6.289,1.56,11.743,2,17,9.01,2.941,14.78,12.09,24,16,34.39,14.578,63.25,13.8,83,44,5.01,7.656,12.5,20.57,9,36q-1.995,10-4,20a106.625,106.625,0,0,1-14,25c-21.87,29.394-89.24,33.309-128,17-11.57-4.868-31.3-7.635-32-23,9.94-7.219,7.8-21.416,23-26,12.08-3.644,19.32,7.314,25,11,18.38,11.927,65.34,12.112,73-9,6.45-8.58.29-25.059-6-30-8.84-6.948-19.78-8-32-12-19.09-6.252-41-13.09-56-24-14.81-10.778-28.84-43.928-20-71,5.9-18.082,20.02-32.864,35-42,6.86-4.185,17.92-7.013,26-9C2869.03,342.517,2874.74,344.711,2879,342Zm721,0c62.29-.776,97.97,16.027,121,54,6.29,10.375,7.36,21.623,11,35,13.31,48.869-8.35,111.491-36,132-15.94,11.824-35.56,19.665-58,25-21.12,5.021-47.07-1.479-62-7-44.9-16.61-58.96-36.579-73-84-3.86-13.051-8.28-35.964-4-53,2.36-9.421,3.28-21.738,7-31,11-27.4,32-51.69,59-63,7.33-3.07,16.86-5.226,24-7C3592.86,342.042,3597.36,343.615,3600,342Zm-2184,1c30.3-.657,56.43,5,74,17,5.39,3.68,15.06,7.114,16,15-7.87,5.649-12.39,17.913-19,25-6.92-1.389-14.04-1.587-20-4-7.88-3.193-16.32-8.536-25-11-21.36-6.066-45.48,5.565-50,20-1.97,6.289,1.56,11.743,2,17,9.01,2.941,14.78,12.09,24,16,34.39,14.578,63.25,13.8,83,44,5.01,7.656,12.5,20.57,9,36q-1.995,10-4,20a106.625,106.625,0,0,1-14,25c-21.87,29.394-89.24,33.309-128,17-11.57-4.868-31.3-7.635-32-23,9.94-7.219,7.8-21.416,23-26,12.08-3.644,19.32,7.314,25,11,18.38,11.927,65.34,12.112,73-9,6.45-8.58.29-25.059-6-30-8.84-6.948-19.78-8-32-12-19.09-6.252-41-13.09-56-24-14.81-10.778-28.84-43.928-20-71,5.9-18.082,20.02-32.864,35-42,6.86-4.185,17.92-7.013,26-9C1406.03,343.517,1411.74,345.711,1416,343Zm443,0c30.3-.657,56.43,5,74,17,5.39,3.68,15.06,7.114,16,15-7.87,5.649-12.39,17.913-19,25-6.92-1.389-14.04-1.587-20-4-7.88-3.193-16.32-8.536-25-11-21.36-6.066-45.48,5.565-50,20-1.97,6.289,1.56,11.743,2,17,9.01,2.941,14.78,12.09,24,16,34.39,14.578,63.25,13.8,83,44,5.01,7.656,12.5,20.57,9,36q-1.995,10-4,20a106.625,106.625,0,0,1-14,25c-21.87,29.394-89.24,33.309-128,17-11.57-4.868-31.3-7.635-32-23,9.94-7.219,7.8-21.416,23-26,12.08-3.644,19.32,7.314,25,11,18.38,11.927,65.34,12.112,73-9,6.45-8.58.29-25.059-6-30-8.84-6.948-19.78-8-32-12-19.09-6.252-41-13.09-56-24-14.81-10.778-28.84-43.928-20-71,5.9-18.082,20.02-32.864,35-42,6.86-4.185,17.92-7.013,26-9C1849.03,343.517,1854.74,345.711,1859,343Zm394,0c87.59-.747,124.31,37.606,120,125a24.823,24.823,0,0,0-5,4H2214v2c-5.28,8.368,7.01,34.072,10,39,3.35,5.525,5.24,10.109,9,15,13.17,17.157,50.54,21.417,76,12,16.88-6.244,22.66-19.415,46-14,4.55,8.838,14.8,14.348,16,26q-7.005,7-14,14c-14.35,10.366-34.79,17.114-54,22-13.73,3.492-29.99,1.7-42-1h-14c-9.91-2.183-18.48-4.275-27-8-34.84-15.233-50.79-46.478-61-87-2.96-11.761-5.02-32.212-2-46,3.35-15.254,2.73-26.837,8-39,9.65-22.282,30.58-45.555,53-55a179.754,179.754,0,0,1,25-8C2246.6,343.1,2250.58,344.483,2253,343Zm1142,3h56c0.4,77.408.96,158.945,1,238h-57V346Zm-1630,1c-0.56,7.326-5.61,13.668-8,20-7.74,20.514-15.68,39.054-24,58-24.74,56.332-48.67,112.373-73,168-6.98,15.953-13.53,31.755-20,47-4.23,9.961-4.18,22.735-17,24-6.73,4.423-35.74,2.112-47,2a15.649,15.649,0,0,1-1-5c5.77-4.88,7.41-17.09,11-24,9.48-18.258,17.61-35.63,26-56,1.95-4.731,5.22-7.88,6-14-9.82-13.11-14.1-31.329-21-47-14.38-32.66-28.29-66.262-43-100q-11.8-27.087-24-55c-2.45-5.588-6.85-9.878-8-17h59c12.31,22.561,20.99,47.814,32,73,8.83,20.216,19.64,41.378,28,62,2.94,7.253,3.27,15.372,6,22,0.8-1.021.35-.274,1-2,7.51-8.461,8.36-26.076,13-37,10.24-24.1,20.86-49.995,31-74,5.18-12.268,5.23-31.166,14-40,2.15-2.162,5.84-2.85,8-5h51ZM587,356c12.139,0.077,28.365.776,36,6,15.588,10.667,11.427,39.147-4,47-11.493,5.85-39.627,2.078-56,2-34.886-.166-73.507-1-110-1H405c-8.768-2.9-24.741-24.377-15-38,4.6-16.206,23.974-15,45-15H547C555.556,357,581.689,359.243,587,356Zm1628,82c33.98,2.316,72.35.991,108,1,0.42-25.661-10.26-43.548-28-51C2254.35,370.927,2214.6,397.816,2215,438Zm1016-53c-5.13,4.253-16.46,3.579-22,7-9.71,6-16.98,14.357-25,22-2.39,34.472-.03,72.91,0,110,9.51,3.237,15.04,12.952,24,17,23.59,10.655,54.29-2.144,65-17,20.79-28.841,19.46-97.105-1-124C3264.02,389.509,3247.85,386.766,3231,385Zm375,0c-4.85,5.355-15.8,3.925-22,8-9.44,6.2-17.89,20.7-22,32-12.37,34-2.38,93.638,19,109,6.32,4.537,13.05,4.668,22,7,6.38,1.663,18.35,5.628,28,3,21.98-5.982,37.11-23.081,43-45q0.495-10,1-20a67.233,67.233,0,0,0,0-28q-1.005-12-2-24C3662.81,398.557,3644.29,385.54,3606,385ZM3036,519c19.17,3.146,30.99,4.221,39,18,14.18,24.393-9.65,48.907-28,53-21.14,4.715-46.44-20.849-40-44C3011.7,529.112,3023.37,527.738,3036,519ZM686,638c43.644-.5,94.794-2.317,113,23,11.143,15.5,11,40.211,11,67,0,7.627,1.012,16.855-1,23-3.569,10.9-11.332,22.963-20,29-29.6,20.616-93.277,12-140,12H433c-21.845,0-45.758.3-66,1-14.194.491-31.54-1.679-44,1-7.894,1.7-21.67.373-28-1-13.034-2.828-25.224.9-37-2-25.179-6.2-40.691-19.245-47-44-1.968-7.723-2.222-22.946-1-29q0.5-13.5,1-27c5.273-22.539,12.807-35.913,30-46,17.286-10.142,72.112-5,99-5H583c24.313,0,49.054-.992,72-1C663.127,639,680.165,641.606,686,638Z"/>
</svg>
