<?xml version="1.0" encoding="UTF-8" standalone="no"?>
<!DOCTYPE svg PUBLIC "-//W3C//DTD SVG 1.1//EN" "http://www.w3.org/Graphics/SVG/1.1/DTD/svg11.dtd">
<svg xmlns="http://www.w3.org/2000/svg" xmlns:xlink="http://www.w3.org/1999/xlink" version="1.1" width="1200pt" height="1200pt" viewBox="0 0 1200 1200">
<g enable-background="new">
<path d="M 0 0 L 1200 0 L 1200 1200 L 0 1200 Z " fill="#cacbd5"/>
<path transform="matrix(1200,0,0,1200,0,0)" d="M 0 0 L 1 0 L 1 1 L 0 1 Z " fill="#3d4252"/>
<path transform="matrix(9.444445,0,0,9.444445,127.77777,121.67667)" d="M 50 95.646 C 74.854 95.646 95 75.499 95 50.646 C 95 25.793 74.854 5.646 50 5.646 C 25.146 5.646 5 25.793 5 50.646 C 5 75.499 25.146 95.646 50 95.646 Z M 50 6.646 C 74.262 6.646 94 26.384 94 50.646 C 94 74.908 74.262 94.646 50 94.646 C 25.738 94.646 6 74.908 6 50.646 C 6 26.384 25.738 6.646 50 6.646 Z " fill="#ffffff"/>
<path transform="matrix(1,0,0,1,357.0393,706.71487)" d="M 19.177842 66.0369 C 31.842453 66.0369 38.536607 59.523679 38.536607 51.020296 C 38.536607 42.878759 32.385225 39.44122 26.957531 37.451066 C 22.434456 35.822759 18.45415 34.918146 18.45415 32.566148 C 18.45415 30.756915 19.811072 30.033223 22.434456 30.033223 C 25.238762 30.033223 28.404915 31.480607 31.66153 33.832609 L 38.536607 24.605532 C 34.556299 21.620303 29.30953 18.635073 21.891686 18.635073 C 11.217228 18.635073 3.980307 24.424609 3.980307 33.289838 C 3.980307 40.70768 10.131689 44.597528 15.378457 46.678144 C 19.901534 48.48737 24.062764 49.57291 24.062764 51.924909 C 24.062764 53.73414 22.7963 54.638757 19.539687 54.638757 C 16.373534 54.638757 12.664612 53.19137 8.503382 50.115678 L 1.628307 59.704599 C 6.332306 63.503984 13.388304 66.0369 19.177842 66.0369 Z M 52.829526 81.95813 C 64.04675 81.95813 68.93167 76.43998 73.63567 64.22768 L 88.833209 19.72061 L 73.99752 19.72061 L 69.47444 37.08922 C 68.3889 41.431375 67.48429 45.5926 66.57967 49.934755 L 66.21783 49.934755 C 65.132289 45.41168 64.22768 41.25045 62.961214 37.08922 L 57.533525 19.72061 L 41.97414 19.72061 L 59.16183 63.32306 L 58.61906 65.31321 C 57.714445 68.02706 55.724294 69.83629 51.563066 69.83629 C 50.658449 69.83629 49.48245 69.47444 48.668294 69.29352 L 45.95445 81.05351 C 47.944604 81.59628 49.753835 81.95813 52.829526 81.95813 Z M 109.09659 66.0369 C 121.7612 66.0369 128.45536 59.523679 128.45536 51.020296 C 128.45536 42.878759 122.30396 39.44122 116.876277 37.451066 C 112.353199 35.822759 108.372898 34.918146 108.372898 32.566148 C 108.372898 30.756915 109.72981 30.033223 112.353199 30.033223 C 115.15751 30.033223 118.32366 31.480607 121.58028 33.832609 L 128.45536 24.605532 C 124.475048 21.620303 119.22827 18.635073 111.81043 18.635073 C 101.13597 18.635073 93.89905 24.424609 93.89905 33.289838 C 93.89905 40.70768 100.05043 44.597528 105.2972 46.678144 C 109.820278 48.48737 113.98151 49.57291 113.98151 51.924909 C 113.98151 53.73414 112.71504 54.638757 109.45843 54.638757 C 106.292278 54.638757 102.58336 53.19137 98.42213 50.115678 L 91.54705 59.704599 C 96.25105 63.503984 103.307048 66.0369 109.09659 66.0369 Z M 152.87996 66.0369 C 157.85535 66.0369 161.20243 65.132289 163.55442 64.4086 L 161.20243 53.19137 C 160.11688 53.553216 158.6695 53.915063 157.2221 53.915063 C 154.32735 53.915063 151.79442 52.286756 151.79442 47.31137 L 151.79442 31.842453 L 162.10703 31.842453 L 162.10703 19.72061 L 151.79442 19.72061 L 151.79442 7.960613 L 138.94889 7.960613 L 137.13965 19.72061 L 130.26457 20.263379 L 130.26457 31.842453 L 136.23505 31.842453 L 136.23505 47.582757 C 136.23505 58.61906 141.11997 66.0369 152.87996 66.0369 Z M 189.60733 66.0369 C 194.67317 66.0369 201.1864 64.22768 206.07132 60.79014 L 201.00548 51.563066 C 197.74887 53.37229 194.8541 54.27691 191.77841 54.27691 C 186.71257 54.27691 182.73226 52.467679 181.28487 47.039987 L 207.0664 47.039987 C 207.33779 45.95445 207.69963 43.240606 207.69963 40.526758 C 207.69963 28.404915 201.36733 18.635073 187.97902 18.635073 C 176.94272 18.635073 166.26827 27.681223 166.26827 42.335988 C 166.26827 57.3526 176.39995 66.0369 189.60733 66.0369 Z M 181.10395 36.9083 C 182.00856 32.385225 184.90334 30.395068 188.34087 30.395068 C 193.04488 30.395068 194.49225 33.47076 194.49225 36.9083 Z M 216.20302 64.95136 L 231.76239 64.95136 L 231.76239 35.27999 C 234.1144 32.92799 236.28548 31.842453 238.0947 31.842453 C 241.1704 31.842453 242.61779 33.289838 242.61779 39.079374 L 242.61779 64.95136 L 258.17716 64.95136 L 258.17716 35.27999 C 260.52915 32.92799 262.70024 31.842453 264.50947 31.842453 C 267.58515 31.842453 269.03254 33.289838 269.03254 39.079374 L 269.03254 64.95136 L 284.59193 64.95136 L 284.59193 37.08922 C 284.59193 25.871993 280.24977 18.635073 270.299 18.635073 C 264.1476 18.635073 260.07685 22.072609 256.36793 25.871993 C 253.92546 21.167994 250.03563 18.635073 243.88425 18.635073 C 237.73287 18.635073 233.93347 21.710764 230.31502 25.238762 L 229.95317 25.238762 L 228.86763 19.72061 L 216.20302 19.72061 Z M 308.6547 66.0369 C 321.3193 66.0369 328.01347 59.523679 328.01347 51.020296 C 328.01347 42.878759 321.86207 39.44122 316.4344 37.451066 C 311.9113 35.822759 307.931 34.918146 307.931 32.566148 C 307.931 30.756915 309.2879 30.033223 311.9113 30.033223 C 314.7156 30.033223 317.88175 31.480607 321.13838 33.832609 L 328.01347 24.605532 C 324.03315 21.620303 318.78639 18.635073 311.36854 18.635073 C 300.69407 18.635073 293.45716 24.424609 293.45716 33.289838 C 293.45716 40.70768 299.60853 44.597528 304.8553 46.678144 C 309.3784 48.48737 313.5396 49.57291 313.5396 51.924909 C 313.5396 53.73414 312.27314 54.638757 309.01655 54.638757 C 305.85038 54.638757 302.14146 53.19137 297.98023 50.115678 L 291.10517 59.704599 C 295.80915 63.503984 302.86515 66.0369 308.6547 66.0369 Z M 344.8393 66.0369 C 350.08607 66.0369 353.88545 61.875677 353.88545 56.628908 C 353.88545 51.382139 350.08607 47.22091 344.8393 47.22091 C 339.59254 47.22091 335.79316 51.382139 335.79316 56.628908 C 335.79316 61.875677 339.59254 66.0369 344.8393 66.0369 Z M 389.7082 66.0369 C 399.29713 66.0369 408.5242 57.171678 408.5242 41.521837 C 408.5242 27.681223 401.55867 18.635073 390.8842 18.635073 C 386.9039 18.635073 382.92359 20.263379 379.75746 23.158148 L 380.1193 16.644919 L 380.1193 1.990153 L 364.5599 1.990153 L 364.5599 64.95136 L 376.68174 64.95136 L 377.9482 60.066446 L 378.31007 60.066446 C 381.7476 64.04675 385.7279 66.0369 389.7082 66.0369 Z M 385.9088 53.37229 C 383.91868 53.37229 381.9285 52.829526 380.1193 51.201219 L 380.1193 34.556299 C 382.10945 32.2043 383.91868 31.299685 386.27067 31.299685 C 390.4319 31.299685 392.60298 34.375375 392.60298 41.79322 C 392.60298 50.477525 389.52729 53.37229 385.9088 53.37229 Z M 417.0276 64.95136 L 432.58695 64.95136 L 432.58695 19.72061 L 417.0276 19.72061 Z M 424.80726 14.111996 C 429.8731 14.111996 433.49159 10.855382 433.49159 6.332306 C 433.49159 1.80923 429.8731 -1.447384 424.80726 -1.447384 C 419.74143 -1.447384 416.12297 1.80923 416.12297 6.332306 C 416.12297 10.855382 419.74143 14.111996 424.80726 14.111996 Z M 463.16294 66.0369 C 474.74205 66.0369 485.5974 57.3526 485.5974 42.335988 C 485.5974 27.319378 474.74205 18.635073 463.16294 18.635073 C 451.58387 18.635073 440.7285 27.319378 440.7285 42.335988 C 440.7285 57.3526 451.58387 66.0369 463.16294 66.0369 Z M 463.16294 53.553216 C 458.45896 53.553216 456.64973 49.211065 456.64973 42.335988 C 456.64973 35.460916 458.45896 31.118762 463.16294 31.118762 C 467.86695 31.118762 469.67619 35.460916 469.67619 42.335988 C 469.67619 49.211065 467.86695 53.553216 463.16294 53.553216 Z " fill="#b2b4bc"/>
<path transform="matrix(5.474665,0,0,5.474665,446.76603,280.35285)" d="M 54 0 L 2 0 C .895431 0 0 .895431 0 2 L 0 38 L 56 38 L 56 2 C 56 .895431 55.10457 0 54 0 Z M 46 34 C 46 35.10457 45.10457 36 44 36 L 38 36 C 36.89543 36 36 35.10457 36 34 L 31.444 34 C 30.738444 35.23679 29.423888 36.00029 28 36.00029 C 26.576113 36.00029 25.261557 35.23679 24.556 34 L 20 34 C 20 35.10457 19.10457 36 18 36 L 12 36 C 10.895431 36 10 35.10457 10 34 L 10 32 C 10 30.895432 10.895431 30 12 30 L 14 30 L 14 27.858 C 12.235798 27.408978 11.000935 25.820448 11.000935 24 C 11.000935 22.179553 12.235798 20.591025 14 20.142 L 14 19 C 14 17.343146 15.343146 16 17 16 L 23.586 16 L 27 12.586 L 27 10 L 26 10 C 24.895432 10 24 9.10457 24 8 L 24 4 C 24 2.895431 24.895432 2 26 2 L 30 2 C 31.10457 2 32 2.895431 32 4 L 32 8 C 32 9.10457 31.10457 10 30 10 L 29 10 L 29 12.586 L 32.414 16 L 39 16 C 40.656854 16 42 17.343146 42 19 L 42 20.142 C 43.764204 20.591025 44.999067 22.179553 44.999067 24 C 44.999067 25.820448 43.764204 27.408978 42 27.858 L 42 30 L 44 30 C 45.10457 30 46 30.895432 46 32 L 46 34 Z " fill="#ffffff"/>
<path transform="matrix(5.474665,0,0,5.474665,446.76603,280.35285)" d="M 40 30 L 40 27.858 C 38.235799 27.408978 37.000936 25.820448 37.000936 24 C 37.000936 22.179553 38.235799 20.591025 40 20.142 L 40 19 C 40 18.447716 39.552286 18 39 18 L 32.414 18 L 29 21.414 L 29 28.142 C 30.760685 28.596594 31.993185 30.181588 32 32 L 36 32 C 36 30.895432 36.89543 30 38 30 L 40 30 Z " fill="#ffffff"/>
<path transform="matrix(5.474665,0,0,5.474665,446.76603,280.35285)" d="M 0 44 C 0 45.10457 .895431 46 2 46 L 54 46 C 55.10457 46 56 45.10457 56 44 L 56 40 L 0 40 L 0 44 Z M 25 42 L 31 42 C 31.552285 42 32 42.447717 32 43 C 32 43.552286 31.552285 44 31 44 L 25 44 C 24.447716 44 24 43.552286 24 43 C 24 42.447717 24.447716 42 25 42 Z " fill="#ffffff"/>
<path transform="matrix(5.474665,0,0,5.474665,446.76603,280.35285)" d="M 38 32 L 44 32 L 44 34 L 38 34 Z " fill="#ffffff"/>
<path transform="matrix(5.474665,0,0,5.474665,446.76603,280.35285)" d="M 43 24 C 43 25.104569 42.10457 26 41 26 C 39.89543 26 39 25.104569 39 24 C 39 22.895432 39.89543 22 41 22 C 42.10457 22 43 22.895432 43 24 Z " fill="#ffffff"/>
<path transform="matrix(5.474665,0,0,5.474665,446.76603,280.35285)" d="M 18 33 L 18.001 32.995 L 18 32 L 12 32 L 12 34 L 18.002 34 L 18.001 33.005 Z " fill="#ffffff"/>
<path transform="matrix(5.474665,0,0,5.474665,446.76603,280.35285)" d="M 27 21.414 L 23.586 18 L 17 18 C 16.447716 18 16 18.447716 16 19 L 16 20.142 C 17.764203 20.591025 18.999066 22.179553 18.999066 24 C 18.999066 25.820448 17.764203 27.408978 16 27.858 L 16 30 L 18 30 C 19.10457 30 20 30.895432 20 32 L 24 32 C 24.006815 30.181588 25.239315 28.596594 27 28.142 L 27 21.414 Z " fill="#ffffff"/>
<path transform="matrix(5.474665,0,0,5.474665,446.76603,280.35285)" d="M 30 32 C 30 33.10457 29.104569 34 28 34 C 26.895432 34 26 33.10457 26 32 C 26 30.895432 26.895432 30 28 30 C 29.104569 30 30 30.895432 30 32 Z " fill="#ffffff"/>
<path transform="matrix(5.474665,0,0,5.474665,446.76603,280.35285)" d="M 25.413636 16.999825 L 27.999526 14.413936 L 30.585415 16.999825 L 27.999526 19.585715 Z " fill="#ffffff"/>
<path transform="matrix(5.474665,0,0,5.474665,446.76603,280.35285)" d="M 17 24 C 17 25.104569 16.104569 26 15 26 C 13.895431 26 13 25.104569 13 24 C 13 22.895432 13.895431 22 15 22 C 16.104569 22 17 22.895432 17 24 Z " fill="#ffffff"/>
<path transform="matrix(5.474665,0,0,5.474665,446.76603,280.35285)" d="M 26 4 L 30.001 4 L 30.001 8 L 26 8 Z " fill="#ffffff"/>
<path transform="matrix(5.474665,0,0,5.474665,446.76603,280.35285)" d="M 41 55 L 33.261 55 C 32.439439 53.82801 31.999114 52.431268 32 51 L 32 48 L 24 48 L 24 51 C 24.000887 52.431268 23.560563 53.82801 22.739 55 L 15 55 C 14.447715 55 14 55.447717 14 56 C 14 56.552286 14.447715 57 15 57 L 41 57 C 41.552286 57 42 56.552286 42 56 C 42 55.447717 41.552286 55 41 55 Z " fill="#ffffff"/>
</g>
</svg>
